<svg xmlns="http://www.w3.org/2000/svg" width="336.27" height="68.6" viewBox="0 0 336.27 68.6">
  <defs>
    <style>
      .a {
        fill: #231f20;
      }

      .b {
        fill: #fff;
      }
    </style>
  </defs>
  <title>fullname_lowercase_logo_black</title>
  <g>
    <path class="a" d="M23.1,55V34.2c0-4.8-2.5-6.4-6.3-6.4A9.61,9.61,0,0,0,9,31.9V55.1H0V20.6H9v4.5a15.8,15.8,0,0,1,12-5.3c7.6,0,11.2,4.3,11.2,11V55.1H23.1V55Z"/>
    <polygon class="a" points="41.9 8.7 49.5 8.8 49.5 16.4 41.9 16.4 41.9 8.7"/>
    <polygon class="a" points="142.3 8.7 149.9 8.8 149.9 16.4 142.3 16.4 142.3 8.7"/>
    <rect class="a" x="41.2" y="20.6" width="9" height="34.4"/>
    <path class="a" d="M82.8,55V50.6a13.45,13.45,0,0,1-10.6,5.3c-8.7,0-15.2-6.6-15.2-18s6.5-18.1,15.2-18.1a13.16,13.16,0,0,1,10.6,5.3V0h9.1V55.1H82.8V55Z"/>
    <path class="a" d="M123.7,55V34.1c0-4.8-2.5-6.3-6.4-6.3a9.76,9.76,0,0,0-7.8,4.1V55.1h-9V0h9V25.2a16,16,0,0,1,12.1-5.3c7.5,0,11.2,4.1,11.2,10.8V55.1h-9.1V55Z"/>
    <rect class="a" x="141.7" y="20.6" width="9" height="34.4"/>
    <polygon class="b" points="66 30 80.1 30.1 80.2 44.2 66 44.2 66 30"/>
  </g>
  <g>
    <path class="a" d="M167.79,54.62V20.47h2.12v6.22c3-4,6.79-6.86,11.74-6.86v2.54a13.5,13.5,0,0,0-1.7-.07c-3.61,0-8.48,3.54-10,6.72V54.62h-2.12Z"/>
    <path class="a" d="M187.44,37.51c0-9.9,6.86-17.88,16-17.88,10.46,0,15.84,8.41,15.84,17.88v0.71H189.84c0.21,8.34,5.66,15.34,14.35,15.34a15.57,15.57,0,0,0,11.88-5.16l1.27,1.34a17.06,17.06,0,0,1-13.15,5.73C194.3,55.47,187.44,47.9,187.44,37.51Zm16-16c-8.77,0-13.36,8.06-13.57,14.78h27.22C217.06,29.73,212.75,21.53,203.42,21.53Z"/>
    <path class="a" d="M255.38,54.62V48.89a15.07,15.07,0,0,1-12.3,6.58c-9.19,0-15.27-7.07-15.27-17.89s6.08-18,15.27-18a14.94,14.94,0,0,1,12.3,6.72V0h2.12V54.62h-2.12Zm0-7.85V28.46a15,15,0,0,0-12.3-6.93c-8.34,0-12.94,7.07-12.94,16s4.6,16,12.94,16A14.86,14.86,0,0,0,255.38,46.77Z"/>
    <path class="a" d="M295.4,54.62V48.89a15.07,15.07,0,0,1-12.3,6.58c-9.19,0-15.27-7.07-15.27-17.89s6.08-18,15.27-18a14.94,14.94,0,0,1,12.3,6.72V0h2.12V54.62H295.4Zm0-7.85V28.46a15,15,0,0,0-12.3-6.93c-8.34,0-12.94,7.07-12.94,16s4.6,16,12.94,16A14.86,14.86,0,0,0,295.4,46.77Z"/>
    <path class="a" d="M307.56,66a8.51,8.51,0,0,0,3,.57c2.26,0,3.82-1,5.37-4.67L319,54.83,304.38,20.47h2.47l13.43,31.67,13.36-31.67h2.47L318,62.68c-1.63,3.68-4.1,5.8-7.49,5.8a11.87,11.87,0,0,1-3.39-.5Z"/>
  </g>
</svg>
