<svg xmlns="http://www.w3.org/2000/svg" width="153.02" height="84.94" viewBox="0 0 153.02 84.94">
  <defs>
    <style>
      .a {
        fill: #f69b3f;
      }

      .b {
        fill: #ee675f;
      }

      .c {
        fill: #e5629e;
      }

      .d {
        fill: #cc357e;
      }

      .e {
        fill: #3b3e40;
      }
    </style>
  </defs>
  <title>nidhi_lowercase_logo</title>
  <g>
    <path class="a" d="M24.34,55V34.2c0-4.8-2.5-6.4-6.3-6.4a9.61,9.61,0,0,0-7.8,4.1V55.1h-9V20.6h9v4.5a15.8,15.8,0,0,1,12-5.3c7.6,0,11.2,4.3,11.2,11V55.1h-9.1V55Z"/>
    <polygon class="b" points="43.14 8.7 50.74 8.8 50.74 16.4 43.14 16.4 43.14 8.7"/>
    <polygon class="c" points="143.54 8.7 151.14 8.8 151.14 16.4 143.54 16.4 143.54 8.7"/>
    <rect class="a" x="42.44" y="20.6" width="9" height="34.4"/>
    <path class="b" d="M84,55V50.6a13.45,13.45,0,0,1-10.6,5.3c-8.7,0-15.2-6.6-15.2-18s6.5-18.1,15.2-18.1A13.16,13.16,0,0,1,84,25.1V0h9.1V55.1H84V55Z"/>
    <path class="d" d="M124.94,55V34.1c0-4.8-2.5-6.3-6.4-6.3a9.76,9.76,0,0,0-7.8,4.1V55.1h-9V0h9V25.2a16,16,0,0,1,12.1-5.3c7.5,0,11.2,4.1,11.2,10.8V55.1h-9.1V55Z"/>
    <rect class="d" x="142.94" y="20.6" width="9" height="34.4"/>
    <polygon class="d" points="67.24 30 81.34 30.1 81.44 44.2 67.24 44.2 67.24 30"/>
  </g>
  <g>
    <path class="e" d="M2.64,81.2a12.6,12.6,0,0,1-2.5-7.6A12.82,12.82,0,0,1,2.64,66l0.8,0.6a14.3,14.3,0,0,0-1.9,7,13.57,13.57,0,0,0,1.9,7Z"/>
    <path class="e" d="M19.94,77.8V72.4A1.65,1.65,0,0,0,18,70.5a3.31,3.31,0,0,0-2.6,1.3v6h-1.3V69.6h1.3v1.2a4.32,4.32,0,0,1,3.1-1.4c1.8,0,2.8.9,2.8,2.7v5.8h-1.4V77.8Z"/>
    <path class="e" d="M32.74,67.5a0.9,0.9,0,1,1,.9.9A0.9,0.9,0,0,1,32.74,67.5Zm0.2,10.3V69.6h1.3v8.3h-1.3V77.8Z"/>
    <path class="e" d="M52.14,77.8V76.6a3.7,3.7,0,0,1-2.9,1.4c-2.3,0-3.9-1.6-3.9-4.3s1.6-4.3,3.9-4.3a3.39,3.39,0,0,1,2.9,1.5V66.5h1.3V77.9h-1.3V77.8Zm0-2.2V71.9a3.31,3.31,0,0,0-2.6-1.3,2.9,2.9,0,0,0-2.8,3.2c0,1.8,1,3.2,2.8,3.2A3.52,3.52,0,0,0,52.14,75.6Z"/>
    <path class="e" d="M64.34,74.2V73.1h4.3v1.1h-4.3Z"/>
    <path class="e" d="M79.74,76.1V70.7h-1.4V69.6h1.4V67.3H81v2.3h1.8v1.1H81v5.1a1,1,0,0,0,.9,1.1,1.9,1.9,0,0,0,.9-0.3l0.4,1a2.17,2.17,0,0,1-1.6.5A1.86,1.86,0,0,1,79.74,76.1Z"/>
    <path class="e" d="M99.64,77.8V72.4c0-1.5-.8-1.9-2-1.9A3.65,3.65,0,0,0,95,71.8v6h-1.3V66.4H95v4.3a4.32,4.32,0,0,1,3.1-1.4c1.8,0,2.8.8,2.8,2.6v5.8h-1.3v0.1Z"/>
    <path class="e" d="M112,73.7a4.21,4.21,0,0,1,4.3-4.3,4.1,4.1,0,0,1,4.2,4.4v0.3h-7a3,3,0,0,0,3.1,2.9,4.27,4.27,0,0,0,2.7-1l0.6,0.8a4.94,4.94,0,0,1-3.4,1.3A4.34,4.34,0,0,1,112,73.7Zm4.3-3.3a2.79,2.79,0,0,0-2.8,2.8h5.7A2.81,2.81,0,0,0,116.34,70.4Z"/>
    <path class="e" d="M131.14,73.7a4.21,4.21,0,0,1,4.3-4.3,4.1,4.1,0,0,1,4.2,4.4v0.3h-7a3,3,0,0,0,3.1,2.9,4.27,4.27,0,0,0,2.7-1l0.6,0.8a4.94,4.94,0,0,1-3.4,1.3C132.94,78,131.14,76.3,131.14,73.7Zm4.2-3.3a2.79,2.79,0,0,0-2.8,2.8h5.7A2.75,2.75,0,0,0,135.34,70.4Z"/>
    <path class="e" d="M149.64,80.6a13.84,13.84,0,0,0,0-14l0.8-.6a12.8,12.8,0,0,1,0,15.2Z"/>
  </g>
</svg>
