<svg xmlns="http://www.w3.org/2000/svg" width="150.7" height="55.9" viewBox="0 0 150.7 55.9">
  <defs>
    <style>
      .a {
        fill: #f1f2f2;
      }

      .b {
        fill: #cc357e;
      }
    </style>
  </defs>
  <title>nidhi_lowercase_logo_whitepink</title>
  <g>
    <path class="a" d="M23.1,55V34.2c0-4.8-2.5-6.4-6.3-6.4A9.61,9.61,0,0,0,9,31.9V55.1H0V20.6H9v4.5a15.8,15.8,0,0,1,12-5.3c7.6,0,11.2,4.3,11.2,11V55.1H23.1V55Z"/>
    <polygon class="a" points="41.9 8.7 49.5 8.8 49.5 16.4 41.9 16.4 41.9 8.7"/>
    <polygon class="a" points="142.3 8.7 149.9 8.8 149.9 16.4 142.3 16.4 142.3 8.7"/>
    <rect class="a" x="41.2" y="20.6" width="9" height="34.4"/>
    <path class="a" d="M82.8,55V50.6a13.45,13.45,0,0,1-10.6,5.3c-8.7,0-15.2-6.6-15.2-18s6.5-18.1,15.2-18.1a13.16,13.16,0,0,1,10.6,5.3V0h9.1V55.1H82.8V55Z"/>
    <path class="a" d="M123.7,55V34.1c0-4.8-2.5-6.3-6.4-6.3a9.76,9.76,0,0,0-7.8,4.1V55.1h-9V0h9V25.2a16,16,0,0,1,12.1-5.3c7.5,0,11.2,4.1,11.2,10.8V55.1h-9.1V55Z"/>
    <rect class="a" x="141.7" y="20.6" width="9" height="34.4"/>
    <polygon class="b" points="66 30 80.1 30.1 80.2 44.2 66 44.2 66 30"/>
  </g>
</svg>
